<svg preserveAspectRatio="none" width="100%" height="100%" overflow="visible" style="display: block;" viewBox="0 0 16.6667 15.8333" fill="none" xmlns="http://www.w3.org/2000/svg">
<path id="Vector" d="M6.66667 10.8333H11.5667C11.7917 10.575 12.125 10.4167 12.5 10.4167C13.1917 10.4167 13.75 10.975 13.75 11.6667C13.75 12.3583 13.1917 12.9167 12.5 12.9167C12.1333 12.9167 11.8 12.7583 11.5667 12.5H8.25C7.86667 14.4 6.18333 15.8333 4.16667 15.8333C1.86667 15.8333 0 13.9667 0 11.6667C0 9.65 1.43333 7.96667 3.33333 7.58333V9.30833C2.36667 9.65 1.66667 10.5833 1.66667 11.6667C1.66667 13.0417 2.79167 14.1667 4.16667 14.1667C5.54167 14.1667 6.66667 13.0417 6.66667 11.6667V10.8333ZM8.75 1.66667C10.125 1.66667 11.25 2.79167 11.25 4.16667H12.9167C12.9167 1.86667 11.05 0 8.75 0C6.45 0 4.58333 1.86667 4.58333 4.16667C4.58333 5.35833 5.08333 6.425 5.875 7.18333L3.91667 10.4333C3.35 10.55 2.91667 11.0583 2.91667 11.6667C2.91667 12.3583 3.475 12.9167 4.16667 12.9167C4.85833 12.9167 5.41667 12.3583 5.41667 11.6667C5.41667 11.5333 5.4 11.4083 5.35833 11.2917L8.175 6.6C7.075 6.34167 6.25 5.35 6.25 4.16667C6.25 2.79167 7.375 1.66667 8.75 1.66667ZM12.5 9.16667C11.9667 9.16667 11.475 9.33333 11.0667 9.61667L8.525 5.39167C7.94167 5.29167 7.5 4.78333 7.5 4.16667C7.5 3.475 8.05833 2.91667 8.75 2.91667C9.44167 2.91667 10 3.475 10 4.16667C10 4.29167 9.98333 4.40833 9.95 4.525L11.775 7.56667C12.0083 7.525 12.25 7.5 12.5 7.5C14.8 7.5 16.6667 9.36667 16.6667 11.6667C16.6667 13.9667 14.8 15.8333 12.5 15.8333C10.9583 15.8333 9.60833 14.9917 8.89167 13.75H11.1167C11.5167 14.0167 11.9917 14.1667 12.5 14.1667C13.875 14.1667 15 13.0417 15 11.6667C15 10.2917 13.875 9.16667 12.5 9.16667Z" fill="var(--fill-0, #FCFCFC)"/>
</svg>
